<mxfile host="Electron" modified="2024-03-18T01:54:03.757Z" agent="Mozilla/5.0 (Windows NT 10.0; Win64; x64) AppleWebKit/537.36 (KHTML, like Gecko) draw.io/22.0.3 Chrome/114.0.5735.289 Electron/25.8.4 Safari/537.36" etag="JX50P5CpfBjRjaPnTwcB" version="22.0.3" type="device">
  <diagram name="Page-1" id="e7e014a7-5840-1c2e-5031-d8a46d1fe8dd">
    <mxGraphModel dx="1120" dy="524" grid="1" gridSize="10" guides="1" tooltips="1" connect="1" arrows="1" fold="1" page="1" pageScale="1" pageWidth="1169" pageHeight="826" background="none" math="0" shadow="0">
      <root>
        <mxCell id="0" />
        <mxCell id="1" parent="0" />
        <mxCell id="GZn8l07KhwFVcmHhDR-o-1" value="Doctor&lt;br&gt;" style="shape=umlActor;verticalLabelPosition=bottom;verticalAlign=top;html=1;outlineConnect=0;" vertex="1" parent="1">
          <mxGeometry x="100" y="20" width="50" height="80" as="geometry" />
        </mxCell>
        <mxCell id="GZn8l07KhwFVcmHhDR-o-2" value="Doctor&lt;br&gt;" style="shape=umlActor;verticalLabelPosition=bottom;verticalAlign=top;html=1;outlineConnect=0;fontStyle=1" vertex="1" parent="1">
          <mxGeometry x="170" y="30" width="40" height="70" as="geometry" />
        </mxCell>
        <mxCell id="GZn8l07KhwFVcmHhDR-o-3" value="Doctor&lt;br&gt;" style="shape=umlActor;verticalLabelPosition=bottom;verticalAlign=top;html=1;outlineConnect=0;" vertex="1" parent="1">
          <mxGeometry x="240" y="40" width="30" height="60" as="geometry" />
        </mxCell>
        <mxCell id="GZn8l07KhwFVcmHhDR-o-4" value="Login window" style="whiteSpace=wrap;html=1;aspect=fixed;" vertex="1" parent="1">
          <mxGeometry x="440" y="20" width="70" height="70" as="geometry" />
        </mxCell>
        <mxCell id="GZn8l07KhwFVcmHhDR-o-5" value="User validation" style="whiteSpace=wrap;html=1;aspect=fixed;" vertex="1" parent="1">
          <mxGeometry x="540" y="20" width="70" height="70" as="geometry" />
        </mxCell>
        <mxCell id="GZn8l07KhwFVcmHhDR-o-6" value="User functions" style="whiteSpace=wrap;html=1;aspect=fixed;" vertex="1" parent="1">
          <mxGeometry x="660" y="20" width="70" height="70" as="geometry" />
        </mxCell>
        <mxCell id="GZn8l07KhwFVcmHhDR-o-7" value="Database" style="whiteSpace=wrap;html=1;aspect=fixed;" vertex="1" parent="1">
          <mxGeometry x="777" y="20" width="70" height="70" as="geometry" />
        </mxCell>
        <mxCell id="GZn8l07KhwFVcmHhDR-o-8" value="" style="endArrow=none;html=1;rounded=0;" edge="1" parent="1">
          <mxGeometry width="50" height="50" relative="1" as="geometry">
            <mxPoint x="130" y="560" as="sourcePoint" />
            <mxPoint x="130" y="120" as="targetPoint" />
          </mxGeometry>
        </mxCell>
        <mxCell id="GZn8l07KhwFVcmHhDR-o-9" value="" style="endArrow=none;html=1;rounded=0;" edge="1" parent="1">
          <mxGeometry width="50" height="50" relative="1" as="geometry">
            <mxPoint x="190" y="560" as="sourcePoint" />
            <mxPoint x="189.5" y="120" as="targetPoint" />
          </mxGeometry>
        </mxCell>
        <mxCell id="GZn8l07KhwFVcmHhDR-o-10" value="" style="endArrow=none;html=1;rounded=0;" edge="1" parent="1">
          <mxGeometry width="50" height="50" relative="1" as="geometry">
            <mxPoint x="252" y="560" as="sourcePoint" />
            <mxPoint x="251.5" y="120" as="targetPoint" />
          </mxGeometry>
        </mxCell>
        <mxCell id="GZn8l07KhwFVcmHhDR-o-33" style="edgeStyle=orthogonalEdgeStyle;rounded=0;orthogonalLoop=1;jettySize=auto;html=1;exitX=0.4;exitY=0.698;exitDx=0;exitDy=0;exitPerimeter=0;" edge="1" parent="1" source="GZn8l07KhwFVcmHhDR-o-11">
          <mxGeometry relative="1" as="geometry">
            <mxPoint x="130" y="432" as="targetPoint" />
          </mxGeometry>
        </mxCell>
        <mxCell id="GZn8l07KhwFVcmHhDR-o-11" value="" style="rounded=0;whiteSpace=wrap;html=1;" vertex="1" parent="1">
          <mxGeometry x="470" y="140" width="5" height="420" as="geometry" />
        </mxCell>
        <mxCell id="GZn8l07KhwFVcmHhDR-o-12" value="" style="rounded=0;whiteSpace=wrap;html=1;" vertex="1" parent="1">
          <mxGeometry x="572.5" y="140" width="5" height="460" as="geometry" />
        </mxCell>
        <mxCell id="GZn8l07KhwFVcmHhDR-o-13" value="" style="rounded=0;whiteSpace=wrap;html=1;" vertex="1" parent="1">
          <mxGeometry x="692.5" y="140" width="5" height="130" as="geometry" />
        </mxCell>
        <mxCell id="GZn8l07KhwFVcmHhDR-o-14" value="" style="rounded=0;whiteSpace=wrap;html=1;" vertex="1" parent="1">
          <mxGeometry x="692.5" y="283" width="5" height="130" as="geometry" />
        </mxCell>
        <mxCell id="GZn8l07KhwFVcmHhDR-o-15" value="" style="rounded=0;whiteSpace=wrap;html=1;" vertex="1" parent="1">
          <mxGeometry x="809.5" y="140" width="5" height="130" as="geometry" />
        </mxCell>
        <mxCell id="GZn8l07KhwFVcmHhDR-o-16" value="" style="rounded=0;whiteSpace=wrap;html=1;" vertex="1" parent="1">
          <mxGeometry x="809.5" y="285" width="5" height="130" as="geometry" />
        </mxCell>
        <mxCell id="GZn8l07KhwFVcmHhDR-o-17" value="" style="rounded=0;whiteSpace=wrap;html=1;" vertex="1" parent="1">
          <mxGeometry x="810" y="430" width="4.5" height="170" as="geometry" />
        </mxCell>
        <mxCell id="GZn8l07KhwFVcmHhDR-o-18" value="" style="endArrow=none;dashed=1;html=1;rounded=0;exitX=1;exitY=0;exitDx=0;exitDy=0;entryX=0.5;entryY=1;entryDx=0;entryDy=0;" edge="1" parent="1" source="GZn8l07KhwFVcmHhDR-o-11" target="GZn8l07KhwFVcmHhDR-o-4">
          <mxGeometry width="50" height="50" relative="1" as="geometry">
            <mxPoint x="430" y="130" as="sourcePoint" />
            <mxPoint x="480" y="80" as="targetPoint" />
          </mxGeometry>
        </mxCell>
        <mxCell id="GZn8l07KhwFVcmHhDR-o-20" value="" style="endArrow=none;dashed=1;html=1;rounded=0;exitX=1;exitY=0;exitDx=0;exitDy=0;entryX=0.5;entryY=1;entryDx=0;entryDy=0;" edge="1" parent="1">
          <mxGeometry width="50" height="50" relative="1" as="geometry">
            <mxPoint x="574" y="142" as="sourcePoint" />
            <mxPoint x="574" y="92" as="targetPoint" />
          </mxGeometry>
        </mxCell>
        <mxCell id="GZn8l07KhwFVcmHhDR-o-21" value="" style="endArrow=none;dashed=1;html=1;rounded=0;exitX=1;exitY=0;exitDx=0;exitDy=0;entryX=0.5;entryY=1;entryDx=0;entryDy=0;" edge="1" parent="1">
          <mxGeometry width="50" height="50" relative="1" as="geometry">
            <mxPoint x="694" y="141" as="sourcePoint" />
            <mxPoint x="694" y="91" as="targetPoint" />
          </mxGeometry>
        </mxCell>
        <mxCell id="GZn8l07KhwFVcmHhDR-o-22" value="" style="endArrow=none;dashed=1;html=1;rounded=0;exitX=1;exitY=0;exitDx=0;exitDy=0;entryX=0.5;entryY=1;entryDx=0;entryDy=0;" edge="1" parent="1">
          <mxGeometry width="50" height="50" relative="1" as="geometry">
            <mxPoint x="812" y="141" as="sourcePoint" />
            <mxPoint x="812" y="91" as="targetPoint" />
          </mxGeometry>
        </mxCell>
        <mxCell id="GZn8l07KhwFVcmHhDR-o-23" value="" style="endArrow=none;dashed=1;html=1;rounded=0;exitX=1;exitY=0;exitDx=0;exitDy=0;" edge="1" parent="1" source="GZn8l07KhwFVcmHhDR-o-14">
          <mxGeometry width="50" height="50" relative="1" as="geometry">
            <mxPoint x="696" y="290" as="sourcePoint" />
            <mxPoint x="695.5" y="260" as="targetPoint" />
            <Array as="points">
              <mxPoint x="696" y="270" />
            </Array>
          </mxGeometry>
        </mxCell>
        <mxCell id="GZn8l07KhwFVcmHhDR-o-24" value="" style="endArrow=none;dashed=1;html=1;dashPattern=1 3;strokeWidth=2;rounded=0;exitX=0.75;exitY=0;exitDx=0;exitDy=0;" edge="1" parent="1" source="GZn8l07KhwFVcmHhDR-o-16">
          <mxGeometry width="50" height="50" relative="1" as="geometry">
            <mxPoint x="767" y="320" as="sourcePoint" />
            <mxPoint x="817" y="270" as="targetPoint" />
            <Array as="points">
              <mxPoint x="813" y="270" />
            </Array>
          </mxGeometry>
        </mxCell>
        <mxCell id="GZn8l07KhwFVcmHhDR-o-26" value="" style="endArrow=none;dashed=1;html=1;dashPattern=1 3;strokeWidth=2;rounded=0;exitX=2.3;exitY=0.069;exitDx=0;exitDy=0;exitPerimeter=0;" edge="1" parent="1">
          <mxGeometry width="50" height="50" relative="1" as="geometry">
            <mxPoint x="814" y="432.97" as="sourcePoint" />
            <mxPoint x="810" y="414" as="targetPoint" />
          </mxGeometry>
        </mxCell>
        <mxCell id="GZn8l07KhwFVcmHhDR-o-28" value="" style="endArrow=classic;html=1;rounded=0;" edge="1" parent="1">
          <mxGeometry width="50" height="50" relative="1" as="geometry">
            <mxPoint x="130" y="180" as="sourcePoint" />
            <mxPoint x="470" y="180" as="targetPoint" />
          </mxGeometry>
        </mxCell>
        <mxCell id="GZn8l07KhwFVcmHhDR-o-29" value="" style="endArrow=classic;html=1;rounded=0;" edge="1" parent="1">
          <mxGeometry width="50" height="50" relative="1" as="geometry">
            <mxPoint x="251" y="220" as="sourcePoint" />
            <mxPoint x="471" y="220" as="targetPoint" />
          </mxGeometry>
        </mxCell>
        <mxCell id="GZn8l07KhwFVcmHhDR-o-30" value="" style="endArrow=classic;html=1;rounded=0;" edge="1" parent="1">
          <mxGeometry width="50" height="50" relative="1" as="geometry">
            <mxPoint x="190" y="200" as="sourcePoint" />
            <mxPoint x="470" y="203" as="targetPoint" />
          </mxGeometry>
        </mxCell>
        <mxCell id="GZn8l07KhwFVcmHhDR-o-31" value="Click" style="text;strokeColor=none;fillColor=none;align=left;verticalAlign=middle;spacingLeft=4;spacingRight=4;overflow=hidden;points=[[0,0.5],[1,0.5]];portConstraint=eastwest;rotatable=0;whiteSpace=wrap;html=1;" vertex="1" parent="1">
          <mxGeometry x="340" y="150" width="80" height="30" as="geometry" />
        </mxCell>
        <mxCell id="GZn8l07KhwFVcmHhDR-o-32" value="Login" style="text;strokeColor=none;fillColor=none;align=left;verticalAlign=middle;spacingLeft=4;spacingRight=4;overflow=hidden;points=[[0,0.5],[1,0.5]];portConstraint=eastwest;rotatable=0;whiteSpace=wrap;html=1;" vertex="1" parent="1">
          <mxGeometry x="320" y="220" width="80" height="30" as="geometry" />
        </mxCell>
        <mxCell id="GZn8l07KhwFVcmHhDR-o-34" style="edgeStyle=orthogonalEdgeStyle;rounded=0;orthogonalLoop=1;jettySize=auto;html=1;exitX=0;exitY=0.75;exitDx=0;exitDy=0;" edge="1" parent="1">
          <mxGeometry relative="1" as="geometry">
            <mxPoint x="190" y="450" as="targetPoint" />
            <mxPoint x="470" y="450" as="sourcePoint" />
          </mxGeometry>
        </mxCell>
        <mxCell id="GZn8l07KhwFVcmHhDR-o-35" style="edgeStyle=orthogonalEdgeStyle;rounded=0;orthogonalLoop=1;jettySize=auto;html=1;" edge="1" parent="1">
          <mxGeometry relative="1" as="geometry">
            <mxPoint x="252" y="472" as="targetPoint" />
            <mxPoint x="470" y="472" as="sourcePoint" />
          </mxGeometry>
        </mxCell>
        <mxCell id="GZn8l07KhwFVcmHhDR-o-36" value="Login" style="text;strokeColor=none;fillColor=none;align=left;verticalAlign=middle;spacingLeft=4;spacingRight=4;overflow=hidden;points=[[0,0.5],[1,0.5]];portConstraint=eastwest;rotatable=0;whiteSpace=wrap;html=1;" vertex="1" parent="1">
          <mxGeometry x="330" y="398" width="80" height="30" as="geometry" />
        </mxCell>
        <mxCell id="GZn8l07KhwFVcmHhDR-o-37" value="Sucsessfull attempt" style="text;strokeColor=none;fillColor=none;align=left;verticalAlign=middle;spacingLeft=4;spacingRight=4;overflow=hidden;points=[[0,0.5],[1,0.5]];portConstraint=eastwest;rotatable=0;whiteSpace=wrap;html=1;" vertex="1" parent="1">
          <mxGeometry x="320" y="480" width="80" height="30" as="geometry" />
        </mxCell>
        <mxCell id="GZn8l07KhwFVcmHhDR-o-38" value="" style="edgeStyle=none;orthogonalLoop=1;jettySize=auto;html=1;rounded=0;" edge="1" parent="1">
          <mxGeometry width="100" relative="1" as="geometry">
            <mxPoint x="475" y="234.5" as="sourcePoint" />
            <mxPoint x="575" y="234.5" as="targetPoint" />
            <Array as="points" />
          </mxGeometry>
        </mxCell>
        <mxCell id="GZn8l07KhwFVcmHhDR-o-39" value="" style="edgeStyle=none;orthogonalLoop=1;jettySize=auto;html=1;rounded=0;" edge="1" parent="1">
          <mxGeometry width="100" relative="1" as="geometry">
            <mxPoint x="475" y="245.5" as="sourcePoint" />
            <mxPoint x="575" y="245.5" as="targetPoint" />
            <Array as="points" />
          </mxGeometry>
        </mxCell>
        <mxCell id="GZn8l07KhwFVcmHhDR-o-40" value="" style="edgeStyle=none;orthogonalLoop=1;jettySize=auto;html=1;rounded=0;" edge="1" parent="1">
          <mxGeometry width="100" relative="1" as="geometry">
            <mxPoint x="475" y="256.5" as="sourcePoint" />
            <mxPoint x="575" y="256.5" as="targetPoint" />
            <Array as="points" />
          </mxGeometry>
        </mxCell>
        <mxCell id="GZn8l07KhwFVcmHhDR-o-41" value="validatiting user" style="text;strokeColor=none;fillColor=none;align=left;verticalAlign=middle;spacingLeft=4;spacingRight=4;overflow=hidden;points=[[0,0.5],[1,0.5]];portConstraint=eastwest;rotatable=0;whiteSpace=wrap;html=1;" vertex="1" parent="1">
          <mxGeometry x="493" y="200" width="80" height="30" as="geometry" />
        </mxCell>
        <mxCell id="GZn8l07KhwFVcmHhDR-o-42" value="using user ID and password" style="text;strokeColor=none;fillColor=none;align=left;verticalAlign=middle;spacingLeft=4;spacingRight=4;overflow=hidden;points=[[0,0.5],[1,0.5]];portConstraint=eastwest;rotatable=0;whiteSpace=wrap;html=1;" vertex="1" parent="1">
          <mxGeometry x="492.5" y="270" width="80" height="50" as="geometry" />
        </mxCell>
        <mxCell id="GZn8l07KhwFVcmHhDR-o-44" style="edgeStyle=orthogonalEdgeStyle;rounded=0;orthogonalLoop=1;jettySize=auto;html=1;exitX=1.5;exitY=0.138;exitDx=0;exitDy=0;exitPerimeter=0;" edge="1" parent="1">
          <mxGeometry relative="1" as="geometry">
            <mxPoint x="577" y="440.1" as="targetPoint" />
            <mxPoint x="816" y="440.0400000000001" as="sourcePoint" />
          </mxGeometry>
        </mxCell>
        <mxCell id="GZn8l07KhwFVcmHhDR-o-45" style="edgeStyle=orthogonalEdgeStyle;rounded=0;orthogonalLoop=1;jettySize=auto;html=1;exitX=-0.1;exitY=0.323;exitDx=0;exitDy=0;exitPerimeter=0;" edge="1" parent="1">
          <mxGeometry relative="1" as="geometry">
            <mxPoint x="573" y="463.1" as="targetPoint" />
            <mxPoint x="808" y="464.09000000000003" as="sourcePoint" />
          </mxGeometry>
        </mxCell>
        <mxCell id="GZn8l07KhwFVcmHhDR-o-46" value="Sucsessfull attempt" style="text;strokeColor=none;fillColor=none;align=left;verticalAlign=middle;spacingLeft=4;spacingRight=4;overflow=hidden;points=[[0,0.5],[1,0.5]];portConstraint=eastwest;rotatable=0;whiteSpace=wrap;html=1;" vertex="1" parent="1">
          <mxGeometry x="480" y="390" width="80" height="30" as="geometry" />
        </mxCell>
        <mxCell id="GZn8l07KhwFVcmHhDR-o-47" value="Login" style="text;strokeColor=none;fillColor=none;align=left;verticalAlign=middle;spacingLeft=4;spacingRight=4;overflow=hidden;points=[[0,0.5],[1,0.5]];portConstraint=eastwest;rotatable=0;whiteSpace=wrap;html=1;" vertex="1" parent="1">
          <mxGeometry x="490" y="480" width="80" height="30" as="geometry" />
        </mxCell>
        <mxCell id="GZn8l07KhwFVcmHhDR-o-48" value="" style="edgeStyle=none;orthogonalLoop=1;jettySize=auto;html=1;rounded=0;entryX=-0.1;entryY=0.608;entryDx=0;entryDy=0;entryPerimeter=0;" edge="1" parent="1" target="GZn8l07KhwFVcmHhDR-o-13">
          <mxGeometry width="100" relative="1" as="geometry">
            <mxPoint x="579" y="217.5" as="sourcePoint" />
            <mxPoint x="679" y="217.5" as="targetPoint" />
            <Array as="points" />
          </mxGeometry>
        </mxCell>
        <mxCell id="GZn8l07KhwFVcmHhDR-o-49" value="adding users and servicers" style="text;strokeColor=none;fillColor=none;align=left;verticalAlign=middle;spacingLeft=4;spacingRight=4;overflow=hidden;points=[[0,0.5],[1,0.5]];portConstraint=eastwest;rotatable=0;whiteSpace=wrap;html=1;" vertex="1" parent="1">
          <mxGeometry x="585" y="160" width="80" height="50" as="geometry" />
        </mxCell>
        <mxCell id="GZn8l07KhwFVcmHhDR-o-50" value="updating users and servicers" style="text;strokeColor=none;fillColor=none;align=left;verticalAlign=middle;spacingLeft=4;spacingRight=4;overflow=hidden;points=[[0,0.5],[1,0.5]];portConstraint=eastwest;rotatable=0;whiteSpace=wrap;html=1;" vertex="1" parent="1">
          <mxGeometry x="697.5" y="160" width="80" height="50" as="geometry" />
        </mxCell>
        <mxCell id="GZn8l07KhwFVcmHhDR-o-51" value="" style="edgeStyle=none;orthogonalLoop=1;jettySize=auto;html=1;rounded=0;entryX=-0.1;entryY=0.608;entryDx=0;entryDy=0;entryPerimeter=0;" edge="1" parent="1">
          <mxGeometry width="100" relative="1" as="geometry">
            <mxPoint x="696" y="219.5" as="sourcePoint" />
            <mxPoint x="809" y="221" as="targetPoint" />
            <Array as="points" />
          </mxGeometry>
        </mxCell>
        <mxCell id="GZn8l07KhwFVcmHhDR-o-52" style="edgeStyle=orthogonalEdgeStyle;rounded=0;orthogonalLoop=1;jettySize=auto;html=1;" edge="1" parent="1">
          <mxGeometry relative="1" as="geometry">
            <mxPoint x="577.5" y="255" as="targetPoint" />
            <mxPoint x="690" y="255" as="sourcePoint" />
          </mxGeometry>
        </mxCell>
        <mxCell id="GZn8l07KhwFVcmHhDR-o-53" value="Sucsessfull attempt" style="text;strokeColor=none;fillColor=none;align=left;verticalAlign=middle;spacingLeft=4;spacingRight=4;overflow=hidden;points=[[0,0.5],[1,0.5]];portConstraint=eastwest;rotatable=0;whiteSpace=wrap;html=1;" vertex="1" parent="1">
          <mxGeometry x="600" y="383" width="80" height="30" as="geometry" />
        </mxCell>
        <mxCell id="GZn8l07KhwFVcmHhDR-o-54" value="" style="edgeStyle=none;orthogonalLoop=1;jettySize=auto;html=1;rounded=0;entryX=-0.1;entryY=0.608;entryDx=0;entryDy=0;entryPerimeter=0;" edge="1" parent="1">
          <mxGeometry width="100" relative="1" as="geometry">
            <mxPoint x="582" y="320" as="sourcePoint" />
            <mxPoint x="695" y="321.5" as="targetPoint" />
            <Array as="points" />
          </mxGeometry>
        </mxCell>
        <mxCell id="GZn8l07KhwFVcmHhDR-o-55" value="adding new test repots" style="text;strokeColor=none;fillColor=none;align=left;verticalAlign=middle;spacingLeft=4;spacingRight=4;overflow=hidden;points=[[0,0.5],[1,0.5]];portConstraint=eastwest;rotatable=0;whiteSpace=wrap;html=1;" vertex="1" parent="1">
          <mxGeometry x="600" y="310" width="80" height="50" as="geometry" />
        </mxCell>
        <mxCell id="GZn8l07KhwFVcmHhDR-o-56" value="" style="edgeStyle=none;orthogonalLoop=1;jettySize=auto;html=1;rounded=0;entryX=-0.1;entryY=0.608;entryDx=0;entryDy=0;entryPerimeter=0;" edge="1" parent="1">
          <mxGeometry width="100" relative="1" as="geometry">
            <mxPoint x="580" y="336.5" as="sourcePoint" />
            <mxPoint x="693" y="338" as="targetPoint" />
            <Array as="points" />
          </mxGeometry>
        </mxCell>
        <mxCell id="GZn8l07KhwFVcmHhDR-o-57" style="edgeStyle=orthogonalEdgeStyle;rounded=0;orthogonalLoop=1;jettySize=auto;html=1;" edge="1" parent="1">
          <mxGeometry relative="1" as="geometry">
            <mxPoint x="585" y="378" as="targetPoint" />
            <mxPoint x="697.5" y="378" as="sourcePoint" />
          </mxGeometry>
        </mxCell>
        <mxCell id="GZn8l07KhwFVcmHhDR-o-58" value="Sucsessfull attempt" style="text;strokeColor=none;fillColor=none;align=left;verticalAlign=middle;spacingLeft=4;spacingRight=4;overflow=hidden;points=[[0,0.5],[1,0.5]];portConstraint=eastwest;rotatable=0;whiteSpace=wrap;html=1;" vertex="1" parent="1">
          <mxGeometry x="600" y="260" width="80" height="30" as="geometry" />
        </mxCell>
        <mxCell id="GZn8l07KhwFVcmHhDR-o-59" value="" style="edgeStyle=none;orthogonalLoop=1;jettySize=auto;html=1;rounded=0;entryX=-0.1;entryY=0.608;entryDx=0;entryDy=0;entryPerimeter=0;" edge="1" parent="1">
          <mxGeometry width="100" relative="1" as="geometry">
            <mxPoint x="697.5" y="334.25" as="sourcePoint" />
            <mxPoint x="810.5" y="335.75" as="targetPoint" />
            <Array as="points" />
          </mxGeometry>
        </mxCell>
        <mxCell id="GZn8l07KhwFVcmHhDR-o-60" value="updating test reports" style="text;strokeColor=none;fillColor=none;align=left;verticalAlign=middle;spacingLeft=4;spacingRight=4;overflow=hidden;points=[[0,0.5],[1,0.5]];portConstraint=eastwest;rotatable=0;whiteSpace=wrap;html=1;" vertex="1" parent="1">
          <mxGeometry x="710" y="283" width="80" height="50" as="geometry" />
        </mxCell>
        <mxCell id="GZn8l07KhwFVcmHhDR-o-61" value="" style="edgeStyle=none;orthogonalLoop=1;jettySize=auto;html=1;rounded=0;entryX=-0.1;entryY=0.608;entryDx=0;entryDy=0;entryPerimeter=0;" edge="1" parent="1">
          <mxGeometry width="100" relative="1" as="geometry">
            <mxPoint x="698.5" y="348.25" as="sourcePoint" />
            <mxPoint x="811.5" y="349.75" as="targetPoint" />
            <Array as="points" />
          </mxGeometry>
        </mxCell>
        <mxCell id="GZn8l07KhwFVcmHhDR-o-63" style="edgeStyle=orthogonalEdgeStyle;rounded=0;orthogonalLoop=1;jettySize=auto;html=1;" edge="1" parent="1">
          <mxGeometry relative="1" as="geometry">
            <mxPoint x="576" y="452.1" as="targetPoint" />
            <mxPoint x="812" y="452.1" as="sourcePoint" />
          </mxGeometry>
        </mxCell>
        <mxCell id="GZn8l07KhwFVcmHhDR-o-64" style="edgeStyle=orthogonalEdgeStyle;rounded=0;orthogonalLoop=1;jettySize=auto;html=1;exitX=1.5;exitY=0.138;exitDx=0;exitDy=0;exitPerimeter=0;" edge="1" parent="1">
          <mxGeometry relative="1" as="geometry">
            <mxPoint x="574" y="535.5" as="targetPoint" />
            <mxPoint x="813" y="535.44" as="sourcePoint" />
          </mxGeometry>
        </mxCell>
        <mxCell id="GZn8l07KhwFVcmHhDR-o-65" style="edgeStyle=orthogonalEdgeStyle;rounded=0;orthogonalLoop=1;jettySize=auto;html=1;exitX=-0.1;exitY=0.323;exitDx=0;exitDy=0;exitPerimeter=0;" edge="1" parent="1">
          <mxGeometry relative="1" as="geometry">
            <mxPoint x="570" y="558.5" as="targetPoint" />
            <mxPoint x="805" y="559.49" as="sourcePoint" />
          </mxGeometry>
        </mxCell>
        <mxCell id="GZn8l07KhwFVcmHhDR-o-66" style="edgeStyle=orthogonalEdgeStyle;rounded=0;orthogonalLoop=1;jettySize=auto;html=1;" edge="1" parent="1">
          <mxGeometry relative="1" as="geometry">
            <mxPoint x="573" y="547.5" as="targetPoint" />
            <mxPoint x="809" y="547.5" as="sourcePoint" />
          </mxGeometry>
        </mxCell>
        <mxCell id="GZn8l07KhwFVcmHhDR-o-67" value="" style="endArrow=classic;html=1;rounded=0;entryX=-0.444;entryY=0.347;entryDx=0;entryDy=0;entryPerimeter=0;" edge="1" parent="1" target="GZn8l07KhwFVcmHhDR-o-17">
          <mxGeometry width="50" height="50" relative="1" as="geometry">
            <mxPoint x="580" y="490" as="sourcePoint" />
            <mxPoint x="800" y="490" as="targetPoint" />
          </mxGeometry>
        </mxCell>
        <mxCell id="GZn8l07KhwFVcmHhDR-o-68" value="" style="endArrow=classic;html=1;rounded=0;entryX=-0.7;entryY=0.438;entryDx=0;entryDy=0;entryPerimeter=0;" edge="1" parent="1">
          <mxGeometry width="50" height="50" relative="1" as="geometry">
            <mxPoint x="580" y="500" as="sourcePoint" />
            <mxPoint x="806" y="497" as="targetPoint" />
          </mxGeometry>
        </mxCell>
        <mxCell id="GZn8l07KhwFVcmHhDR-o-69" value="" style="endArrow=classic;html=1;rounded=0;entryX=-0.7;entryY=0.438;entryDx=0;entryDy=0;entryPerimeter=0;" edge="1" parent="1">
          <mxGeometry width="50" height="50" relative="1" as="geometry">
            <mxPoint x="578" y="511" as="sourcePoint" />
            <mxPoint x="804" y="508" as="targetPoint" />
          </mxGeometry>
        </mxCell>
        <mxCell id="GZn8l07KhwFVcmHhDR-o-70" value="" style="endArrow=classic;html=1;rounded=0;entryX=-0.444;entryY=0.347;entryDx=0;entryDy=0;entryPerimeter=0;" edge="1" parent="1">
          <mxGeometry width="50" height="50" relative="1" as="geometry">
            <mxPoint x="580" y="576" as="sourcePoint" />
            <mxPoint x="808" y="575" as="targetPoint" />
          </mxGeometry>
        </mxCell>
        <mxCell id="GZn8l07KhwFVcmHhDR-o-71" value="" style="endArrow=classic;html=1;rounded=0;entryX=-0.7;entryY=0.438;entryDx=0;entryDy=0;entryPerimeter=0;" edge="1" parent="1">
          <mxGeometry width="50" height="50" relative="1" as="geometry">
            <mxPoint x="580" y="586" as="sourcePoint" />
            <mxPoint x="806" y="583" as="targetPoint" />
          </mxGeometry>
        </mxCell>
        <mxCell id="GZn8l07KhwFVcmHhDR-o-72" value="" style="endArrow=classic;html=1;rounded=0;entryX=-0.7;entryY=0.438;entryDx=0;entryDy=0;entryPerimeter=0;" edge="1" parent="1">
          <mxGeometry width="50" height="50" relative="1" as="geometry">
            <mxPoint x="578" y="597" as="sourcePoint" />
            <mxPoint x="804" y="594" as="targetPoint" />
          </mxGeometry>
        </mxCell>
        <mxCell id="GZn8l07KhwFVcmHhDR-o-73" value="List Item" style="text;strokeColor=none;fillColor=none;align=left;verticalAlign=middle;spacingLeft=4;spacingRight=4;overflow=hidden;points=[[0,0.5],[1,0.5]];portConstraint=eastwest;rotatable=0;whiteSpace=wrap;html=1;" vertex="1" parent="1">
          <mxGeometry x="530" y="360" width="80" height="30" as="geometry" />
        </mxCell>
        <mxCell id="GZn8l07KhwFVcmHhDR-o-74" value="search apoinments" style="text;strokeColor=none;fillColor=none;align=left;verticalAlign=middle;spacingLeft=4;spacingRight=4;overflow=hidden;points=[[0,0.5],[1,0.5]];portConstraint=eastwest;rotatable=0;whiteSpace=wrap;html=1;" vertex="1" parent="1">
          <mxGeometry x="639.5" y="415" width="140" height="30" as="geometry" />
        </mxCell>
        <mxCell id="GZn8l07KhwFVcmHhDR-o-76" value="apoinmentt details" style="text;strokeColor=none;fillColor=none;align=left;verticalAlign=middle;spacingLeft=4;spacingRight=4;overflow=hidden;points=[[0,0.5],[1,0.5]];portConstraint=eastwest;rotatable=0;whiteSpace=wrap;html=1;" vertex="1" parent="1">
          <mxGeometry x="640" y="460" width="140" height="30" as="geometry" />
        </mxCell>
        <mxCell id="GZn8l07KhwFVcmHhDR-o-77" value="search test reports" style="text;strokeColor=none;fillColor=none;align=left;verticalAlign=middle;spacingLeft=4;spacingRight=4;overflow=hidden;points=[[0,0.5],[1,0.5]];portConstraint=eastwest;rotatable=0;whiteSpace=wrap;html=1;" vertex="1" parent="1">
          <mxGeometry x="650" y="510" width="140" height="30" as="geometry" />
        </mxCell>
        <mxCell id="GZn8l07KhwFVcmHhDR-o-79" value="test report details" style="text;strokeColor=none;fillColor=none;align=left;verticalAlign=middle;spacingLeft=4;spacingRight=4;overflow=hidden;points=[[0,0.5],[1,0.5]];portConstraint=eastwest;rotatable=0;whiteSpace=wrap;html=1;" vertex="1" parent="1">
          <mxGeometry x="640" y="600" width="140" height="30" as="geometry" />
        </mxCell>
      </root>
    </mxGraphModel>
  </diagram>
</mxfile>
